<svg xmlns="http://www.w3.org/2000/svg" aria-hidden="true" style="position:absolute;width:0;height:0;overflow:hidden"><defs><symbol id="icon-search" viewBox="0 0 32 32"><path d="M12.56 1.609c-2.122.239-4.328 1.129-6.102 2.461-.983.737-2.114 1.934-2.822 2.982a12.636 12.636 0 0 0-2.003 5.286l-.008.067c-.101.753-.113 2.283-.025 3.009a12.596 12.596 0 0 0 6.266 9.454l.062.032c1.327.746 3.077 1.31 4.657 1.498.651.078 2.176.078 2.827 0 2.087-.249 4.218-1.071 5.813-2.241.279-.205.562-.411.631-.459.123-.088.135-.077 2.826 2.607 1.487 1.483 2.787 2.739 2.89 2.792.237.12.615.122.842.002.281-.173.51-.403.678-.675l.005-.009c.12-.227.118-.606-.002-.842-.053-.103-1.309-1.403-2.792-2.89-2.683-2.691-2.695-2.703-2.607-2.826.048-.069.255-.352.459-.631 1.17-1.594 1.992-3.726 2.241-5.813.078-.651.078-2.176 0-2.827-.233-1.952-.967-3.949-2.035-5.535-.707-1.048-1.838-2.242-2.832-2.99a12.62 12.62 0 0 0-6.123-2.453l-.06-.006c-.609-.066-2.179-.063-2.789.006zm2.899 2.313c4.45.647 7.969 4.158 8.614 8.594.113.776.114 2.191.003 2.942-.523 3.523-2.8 6.498-6.038 7.888-1.189.534-2.578.845-4.039.845s-2.85-.311-4.103-.871l.064.026c-3.202-1.408-5.509-4.328-6.032-7.831l-.007-.056c-.107-.739-.107-2.179 0-2.919.667-4.444 4.121-7.917 8.5-8.606l.058-.007c.698-.105 2.267-.109 2.979-.005z"/></symbol><symbol id="icon-tag" viewBox="0 0 32 32"><path fill="#9f9f9f" d="M17.195 29.291a2.646 2.646 0 0 1-1.885-.781L4.861 18.063a2.65 2.65 0 0 1-.773-2.09l.667-8.755a2.652 2.652 0 0 1 2.464-2.455l8.755-.667c.069-.015.137-.015.207-.015.707 0 1.383.28 1.88.781l10.451 10.445a2.67 2.67 0 0 1 0 3.772l-9.429 9.428a2.657 2.657 0 0 1-1.885.781zM11.538 8.872a2.663 2.663 0 0 0-2.653 2.405 2.668 2.668 0 0 0 3.428 2.813 2.666 2.666 0 0 0 1.111-.666l.009-.008h-.001a2.663 2.663 0 0 0 .567-2.904 2.671 2.671 0 0 0-2.462-1.64z" style="fill:var(--color1, #9f9f9f)"/></symbol><symbol id="icon-calendar" viewBox="0 0 32 32"><path fill="#9f9f9f" d="M2.667 25.333c0 2.267 1.733 4 4 4h18.667c2.267 0 4-1.733 4-4V14.666H2.667v10.667zm22.667-20h-2.667V4c0-.8-.533-1.333-1.333-1.333S20.001 3.2 20.001 4v1.333h-8V4c0-.8-.533-1.333-1.333-1.333S9.335 3.2 9.335 4v1.333H6.668c-2.267 0-4 1.733-4 4V12h26.667V9.333c0-2.267-1.733-4-4-4z" style="fill:var(--color1, #9f9f9f)"/></symbol><symbol id="icon-admin" viewBox="0 0 32 32"><path fill="#9f9f9f" d="M16 14.8c-3.632 0-4.368-5.504-4.368-5.504-.432-2.864.88-6.096 4.32-6.096 3.456 0 4.768 3.232 4.336 6.096 0 0-.656 5.504-4.288 5.504zm0 4.112L20.352 16c3.824 0 7.232 3.728 7.232 7.248v3.984S21.744 29.04 16 29.04c-5.84 0-11.584-1.808-11.584-1.808v-3.984c0-3.6 3.104-7.168 7.152-7.168L16 18.912z" style="fill:var(--color1, #9f9f9f)"/></symbol><symbol id="icon-clock" viewBox="0 0 32 32"><path d="M32 16a15.997 15.997 0 0 1-16 16A16.003 16.003 0 0 1 0 16 16.003 16.003 0 0 1 16 0a16.003 16.003 0 0 1 16 16zM16 7a.997.997 0 0 0-1-1 .997.997 0 0 0-1 1v11a1.007 1.007 0 0 0 .504.868l7 4a1.004 1.004 0 0 0 1.344-.383 1.003 1.003 0 0 0-.352-1.353L16 17.42V7z"/></symbol><symbol id="icon-phone" viewBox="0 0 32 32"><path d="m27.316 22.853-5.42-4.928a1.332 1.332 0 0 0-1.855.058l-3.191 3.281c-.768-.147-2.312-.628-3.901-2.213-1.589-1.591-2.071-3.139-2.213-3.901l3.279-3.192a1.333 1.333 0 0 0 .057-1.855L9.145 4.684c-.233-.257-.557-.413-.904-.434s-.687.093-.951.318L4.397 7.049a1.332 1.332 0 0 0-.387.865c-.02.333-.401 8.229 5.721 14.355C15.072 27.609 21.763 28 23.606 28c.269 0 .435-.008.479-.011.326-.018.634-.156.864-.388l2.48-2.895a1.33 1.33 0 0 0-.113-1.854z"/></symbol><symbol id="icon-marker" viewBox="0 0 25 32"><path d="M12.571.137C9.238.141 6.043 1.447 3.686 3.77S.003 9.241 0 12.525a12.147 12.147 0 0 0 2.533 7.433s.343.445.399.509l9.64 11.203 9.645-11.209c.05-.06.394-.503.394-.503l.001-.003a12.143 12.143 0 0 0 2.531-7.43c-.004-3.284-1.33-6.433-3.686-8.755S15.905.141 12.572.137zm0 16.893c-.904 0-1.788-.264-2.54-.759s-1.338-1.198-1.684-2.022c-.346-.823-.437-1.729-.26-2.603s.612-1.677 1.251-2.307c.639-.63 1.454-1.059 2.341-1.233s1.806-.085 2.641.256 1.549.918 2.052 1.659c.502.741.77 1.612.77 2.503-.002 1.194-.484 2.339-1.341 3.184s-2.019 1.32-3.231 1.321z"/></symbol><symbol id="icon-delete" viewBox="0 0 32 32"><path fill="#b88e2f" d="M27 8h-4V5.5c0-1.103-.897-2-2-2H11c-1.103 0-2 .897-2 2V8H5a1 1 0 0 0-1 1v1c0 .137.112.25.25.25h1.888l.772 16.344A2.001 2.001 0 0 0 8.907 28.5h14.187a1.997 1.997 0 0 0 1.997-1.906l.772-16.344h1.887A.25.25 0 0 0 28 10V9a1 1 0 0 0-1-1zm-6.25 0h-9.5V5.75h9.5V8z" style="fill:var(--color2, #b88e2f)"/></symbol><symbol id="icon-star-half" viewBox="0 0 32 32"><path fill="#ffc700" d="M11.451 11.22 1.281 12.7l7.36 7.17L6.901 30l9.1-4.78V2l-4.55 9.22z" style="fill:var(--color3, #ffc700)"/></symbol><symbol id="icon-star" viewBox="0 0 32 32"><path fill="#ffc700" d="m16 1.6 4.8 9.6 9.6 1.2-6.592 7.392L25.6 30.4 16 25.6l-9.6 4.8 1.808-10.608L1.6 12.4l9.6-1.2L16 1.6z" style="fill:var(--color3, #ffc700)"/></symbol><symbol id="icon-cancel" viewBox="0 0 32 32"><path fill="#9f9f9f" d="M16 0c8.836 0 16 7.164 16 16s-7.164 16-16 16S0 24.836 0 16 7.164 0 16 0zm5.392 12.665a1.45 1.45 0 0 0-.018-2.039 1.452 1.452 0 0 0-2.039-.018L16 13.943l-3.335-3.335a1.452 1.452 0 0 0-2.392.46 1.45 1.45 0 0 0 .336 1.596l3.335 3.335-3.335 3.335a1.452 1.452 0 0 0-.018 2.075c.137.136.299.244.478.318s.37.11.563.108a1.461 1.461 0 0 0 1.033-.444L16 18.056l3.335 3.335a1.45 1.45 0 0 0 2.039-.018 1.452 1.452 0 0 0 .018-2.039l-3.335-3.335 3.335-3.335z" style="fill:var(--color1, #9f9f9f)"/></symbol><symbol id="icon-cancel-cart" viewBox="0 0 29 32"><path fill="#9f9f9f" d="M10.291 16.292a.991.991 0 0 1 .708-.293 1.002 1.002 0 0 1 .708.293l2.292 2.294 2.292-2.294A1 1 0 0 1 18 17c0 .265-.105.52-.293.708L15.413 20l2.294 2.292a1 1 0 0 1-.708 1.709c-.266 0-.52-.106-.708-.293l-2.292-2.294-2.292 2.294A1 1 0 0 1 9.998 23a1 1 0 0 1 .293-.708L12.585 20l-2.294-2.292A.991.991 0 0 1 9.998 17a1.006 1.006 0 0 1 .293-.708z" style="fill:var(--color1, #9f9f9f)"/><path fill="#9f9f9f" d="M14 2a5 5 0 0 1 4.999 5v1h-10V7a4.997 4.997 0 0 1 5-5zm7 6V7a7.003 7.003 0 0 0-7-7 7.003 7.003 0 0 0-7 7v1H0v20a4.003 4.003 0 0 0 4 4h20a4.003 4.003 0 0 0 4-4V8h-7zM2 10h24v18a2 2 0 0 1-2 2H4a2 2 0 0 1-2-2V10z" style="fill:var(--color1, #9f9f9f)"/></symbol><symbol id="icon-twitter" viewBox="0 0 32 32"><path d="M16 2C8.269 2 2 8.269 2 16s6.269 14 14 14 14-6.269 14-14S23.731 2 16 2zm6.728 10.553c.009.147.009.3.009.45 0 4.588-3.494 9.872-9.878 9.872a9.844 9.844 0 0 1-5.331-1.556c.281.031.55.044.837.044 1.625 0 3.119-.55 4.309-1.481a3.472 3.472 0 0 1-3.244-2.406c.534.078 1.016.078 1.566-.062a3.47 3.47 0 0 1-2.778-3.406v-.044c.459.259 1 .419 1.566.441a3.468 3.468 0 0 1-1.547-2.888c0-.647.169-1.238.472-1.75a9.842 9.842 0 0 0 7.156 3.629c-.491-2.359 1.272-4.269 3.391-4.269 1 0 1.9.419 2.534 1.094a6.881 6.881 0 0 0 2.203-.834 3.452 3.452 0 0 1-1.525 1.909 6.86 6.86 0 0 0 2-.541 7.282 7.282 0 0 1-1.741 1.8z"/></symbol><symbol id="icon-linkedin" viewBox="0 0 32 32"><path d="M1.333 3.784v24.431a2.452 2.452 0 0 0 2.45 2.453h24.431a2.46 2.46 0 0 0 1.735-.718 2.442 2.442 0 0 0 .717-1.735V3.786a2.46 2.46 0 0 0-.718-1.735 2.442 2.442 0 0 0-1.735-.716H3.784a2.45 2.45 0 0 0-2.451 2.451zm11.611 8.733h3.972v1.995c.573-1.147 2.04-2.179 4.244-2.179 4.225 0 5.227 2.284 5.227 6.475v7.763h-4.276v-6.808c0-2.387-.573-3.733-2.029-3.733-2.02 0-2.86 1.452-2.86 3.733v6.808h-4.277V12.518zM5.611 26.388V12.333h4.277v14.055H5.611zM10.5 7.749a2.746 2.746 0 0 1-.784 1.984 2.744 2.744 0 0 1-1.967.827A2.756 2.756 0 0 1 5.19 8.82a2.746 2.746 0 0 1 .635-2.977 2.748 2.748 0 0 1 3.847 0c.515.502.811 1.187.826 1.906z"/></symbol><symbol id="icon-facebook" viewBox="0 0 32 32"><path d="M0 16.089C0 24.044 5.777 30.658 13.333 32V20.444h-4V16h4v-3.556c0-4 2.577-6.221 6.223-6.221 1.155 0 2.4.177 3.555.355v4.089h-2.044c-1.956 0-2.4.977-2.4 2.223v3.111h4.267l-.711 4.444h-3.556v11.556C26.223 30.66 32 24.046 32 16.09 32 7.241 24.8.001 16 .001S0 7.241 0 16.09z"/></symbol><symbol id="icon-support" viewBox="0 0 29 32"><path d="M27.57 12.78C27.36 5.697 21.533 0 14.4 0S1.44 5.697 1.23 12.78l-.948.948v6.427l.941.941v4.379a4.648 4.648 0 0 0 4.643 4.643h1.166A2.83 2.83 0 0 0 9.694 32h1.882a2.827 2.827 0 0 0 2.662-1.885l.161.002c4.545 0 8.348-3.239 9.223-7.529h2.461l2.434-2.434v-6.427l-.948-.948zM14.4 1.882c5.586 0 10.238 4.077 11.136 9.412h-1.914c-.874-4.291-4.677-7.529-9.223-7.529s-8.348 3.239-9.223 7.529H3.262c.899-5.335 5.55-9.412 11.136-9.412zm7.291 9.412c-3.042-.009-5.191.176-6.963-2.414l-.86-1.258-.739 1.332c-1.077 1.941-2.528 2.339-4.375 2.339H7.11c.838-3.244 3.789-5.647 7.291-5.647s6.453 2.403 7.291 5.647zM4.988 20.706H3.495l-1.331-1.331v-4.867l1.331-1.331h1.493v7.529zm-1.882 4.768v-2.886h2.07a9.328 9.328 0 0 0 2.458 4.661c-.263.281-.47.616-.601.986H5.867a2.764 2.764 0 0 1-2.761-2.761zm8.47 4.644H9.694a.942.942 0 0 1 0-1.882h1.882a.942.942 0 0 1 0 1.882zm10.353-9.412c0 4.152-3.378 7.529-7.529 7.529l-.163-.002a2.828 2.828 0 0 0-2.661-1.88c-1.933.004-1.902-.01-2.143.012a7.485 7.485 0 0 1-2.563-5.66v-7.529h1.882c1.666 0 3.694-.275 5.265-2.186 2.072 2.171 4.604 2.186 6.877 2.186h1.035v7.529zm4.706-1.331-1.331 1.331h-1.493v-7.529h1.493l1.331 1.331v4.867z"/></symbol><symbol id="icon-shipping" viewBox="0 0 33 32"><path d="M29.874 16.588V2.016a.941.941 0 0 0-.941-.941H3.713a.94.94 0 0 0-.941.941V17.75a2.845 2.845 0 0 0-1.291.534c-1.238.878-1.531 2.843-.494 4.054l4.24 5.14c2.625 3.072 5.413 3.448 9.557 3.448 3.557 0 5.147.016 8.247-.691l3.018-.722c.489.683 1.266 1.126 2.14 1.126h1.487c1.477 0 2.679-1.266 2.679-2.823v-8.415c0-1.486-1.096-2.707-2.481-2.814zm-4.231 1.936-1.254-.637a7.46 7.46 0 0 0-6.541-.106c-.572.225-1.818.979-2.465.954h-4.352a2.62 2.62 0 0 0-2.618 2.618v.686l-.025-.025L5.28 18.64a2.862 2.862 0 0 0-.626-.512V8.789h7.703v3.451c0 .52.421.941.941.941h5.94a.94.94 0 0 0 .941-.941V8.789h7.812v7.798c-1.1.085-2.017.872-2.348 1.936zM14.24 8.79h4.057v2.509H14.24V8.79zm13.752-1.883H20.18v-3.95h7.812v3.95zm-9.694-3.95v3.95h-4.057v-3.95h4.057zm-5.94 0v3.95H4.655v-3.95h7.703zm10.236 25.447c-2.864.656-4.588.629-7.776.629-3.891 0-5.771-.063-8.139-2.753l-4.24-5.14c-.738-.96.598-2.094 1.456-1.223l3.108 3.374c.821.867 1.855 1.344 3.129 1.372h8.617a.94.94 0 1 0 0-1.882h-8.454v-1.426c0-.405.33-.735.735-.735h4.352c.98.07 2.396-.748 3.258-1.129a5.584 5.584 0 0 1 4.897.078l1.971 1.001v7.138l-2.916.698zm7.879-.587c0 .518-.357.94-.797.94h-1.487c-.439 0-.797-.422-.797-.94v-8.415c0-.518.357-.94.797-.94h1.487c.439 0 .797.422.797.94v8.415z"/></symbol><symbol id="icon-guarantee" viewBox="0 0 33 32"><path d="M30.464 11.339c-.422-1.307-.242-3.27-1.34-4.786-1.106-1.527-3.03-1.962-4.116-2.756C23.933 3.011 22.933 1.3 21.125.71c-1.757-.573-3.554.205-4.947.205S12.988.137 11.231.71c-1.808.59-2.809 2.301-3.883 3.087-1.085.794-3.01 1.229-4.116 2.756-1.097 1.514-.918 3.481-1.34 4.786C1.491 12.58.178 14.07.178 16c0 1.931 1.312 3.415 1.714 4.661.422 1.308.242 3.27 1.34 4.786 1.106 1.527 3.03 1.962 4.116 2.756 1.075.786 2.075 2.497 3.883 3.087 1.756.573 3.555-.205 4.947-.205 1.39 0 3.193.777 4.947.205 1.808-.59 2.808-2.301 3.883-3.087 1.085-.794 3.01-1.229 4.116-2.756 1.097-1.514.918-3.481 1.34-4.786.401-1.241 1.714-2.731 1.714-4.661 0-1.931-1.311-3.414-1.714-4.661zm-2.379 8.553c-.492 1.523-.363 3.228-.986 4.088-.631.871-2.288 1.269-3.567 2.204-1.265.925-2.151 2.392-3.183 2.728-.976.318-2.565-.328-4.171-.328-1.618 0-3.191.648-4.171.328-1.031-.336-1.916-1.802-3.183-2.728-1.271-.93-2.938-1.336-3.567-2.204-.62-.857-.496-2.573-.986-4.088-.479-1.484-1.593-2.768-1.593-3.892 0-1.125 1.113-2.405 1.593-3.892.492-1.523.363-3.228.986-4.088.631-.87 2.289-1.27 3.567-2.204 1.269-.928 2.15-2.391 3.182-2.728.975-.318 2.57.328 4.171.328 1.621 0 3.19-.648 4.171-.328 1.031.336 1.917 1.802 3.183 2.728 1.271.93 2.938 1.336 3.567 2.204.621.857.496 2.572.986 4.088.479 1.484 1.593 2.768 1.593 3.892 0 1.125-1.113 2.405-1.593 3.892zm-6.148-7.904a1.25 1.25 0 0 1 0 1.768l-6.257 6.257a1.25 1.25 0 0 1-1.768 0l-3.493-3.493a1.25 1.25 0 0 1 1.768-1.768l2.61 2.61 5.373-5.373a1.25 1.25 0 0 1 1.768 0z"/></symbol><symbol id="icon-trophy" viewBox="0 0 32 32"><path d="M26.322 1.875c-.683 0-1.323.184-1.875.505V.938A.938.938 0 0 0 23.509 0h-15a.938.938 0 0 0-.938.938v1.453a3.728 3.728 0 0 0-1.895-.516 3.754 3.754 0 0 0-3.75 3.75c0 1.577.467 3.101 1.352 4.407 1.505 2.223 3.361 2.8 4.897 3.415a8.484 8.484 0 0 0 4.911 4.781l-.691 4.397h-.136a2.816 2.816 0 0 0-2.813 2.812v4.688h-.938a.938.938 0 0 0 0 1.876h15a.938.938 0 0 0 0-1.876h-.938v-4.688a2.815 2.815 0 0 0-2.812-2.812h-.136l-.691-4.397a8.486 8.486 0 0 0 4.915-4.79c1.451-.58 3.353-1.159 4.874-3.405a7.834 7.834 0 0 0 1.352-4.407 3.754 3.754 0 0 0-3.75-3.75zM7.565 11.183a5.957 5.957 0 0 1-3.763-5.558c0-1.034.841-1.875 1.875-1.875s1.875.841 1.875 1.875c0 .066.007.13.02.192v4.495c0 .301.016.599.047.892l-.054-.022zm13.132 18.942h-9.375V28.25h9.375v1.875zM19.76 24.5a.94.94 0 0 1 .938.938v.938h-9.375v-.938a.94.94 0 0 1 .938-.938h7.5zm-5.466-1.875.62-3.946a8.43 8.43 0 0 0 2.192 0l.62 3.946h-3.432zm8.278-12.313c0 3.619-2.944 6.563-6.563 6.563s-6.563-2.944-6.563-6.563V5.625h13.125v4.687zm0-6.562H9.447V1.875h13.125V3.75zm1.862 7.433-.033.013c.03-.29.046-.585.046-.884V5.625c0-1.034.841-1.875 1.875-1.875s1.875.841 1.875 1.875a5.957 5.957 0 0 1-3.763 5.558z"/></symbol><symbol id="icon-list" viewBox="0 0 35 32"><path d="M5.6 7.6h24a4.8 4.8 0 0 1 4.8 4.8v7.2a4.8 4.8 0 0 1-4.8 4.8h-24a4.8 4.8 0 0 1-4.8-4.8v-7.2a4.8 4.8 0 0 1 4.8-4.8zm0 2.4a2.401 2.401 0 0 0-2.4 2.4v7.2A2.401 2.401 0 0 0 5.6 22h24a2.401 2.401 0 0 0 2.4-2.4v-7.2a2.401 2.401 0 0 0-2.4-2.4h-24zM.8 1.6A1.201 1.201 0 0 1 2 .4h31.2a1.197 1.197 0 0 1 1.2 1.2 1.198 1.198 0 0 1-1.2 1.2H2A1.195 1.195 0 0 1 .8 1.6zm0 28.8A1.197 1.197 0 0 1 2 29.2h31.2a1.206 1.206 0 0 1 1.2 1.2 1.2 1.2 0 0 1-1.2 1.2H2a1.2 1.2 0 0 1-1.2-1.2z"/></symbol><symbol id="icon-menu" viewBox="0 0 32 32"><path d="M24.296 30.519a6.22 6.22 0 0 1-4.4-10.622 6.222 6.222 0 1 1 4.4 10.622zm-16.592 0a6.22 6.22 0 0 1-4.4-10.622 6.22 6.22 0 0 1 8.8 0 6.222 6.222 0 0 1-4.4 10.622zm16.592-16.593a6.22 6.22 0 0 1-4.4-10.622 6.222 6.222 0 1 1 4.4 10.622zm-16.592 0a6.22 6.22 0 0 1-4.4-10.622 6.22 6.22 0 0 1 8.8 0 6.22 6.22 0 0 1 0 8.8 6.22 6.22 0 0 1-4.4 1.822z"/></symbol><symbol id="icon-filter" viewBox="0 0 32 32"><path stroke-linecap="round" stroke-linejoin="round" stroke-width="1.28" d="M28.19 9.143H11.428m-3.047 0H3.81m24.38 15.238H11.428m-3.047 0H3.81m16.761-7.619H3.809m24.381 0h-4.571M9.905 6.095a1.52 1.52 0 0 1 1.524 1.523v3.048a1.52 1.52 0 0 1-1.524 1.524 1.52 1.52 0 0 1-1.524-1.524V7.618a1.524 1.524 0 0 1 1.524-1.523zm0 15.238a1.524 1.524 0 0 1 1.524 1.524v3.048a1.52 1.52 0 0 1-1.524 1.524 1.527 1.527 0 0 1-1.524-1.524v-3.048a1.52 1.52 0 0 1 1.524-1.524zm12.19-7.619a1.52 1.52 0 0 1 1.524 1.524v3.048a1.524 1.524 0 1 1-3.048 0v-3.048a1.52 1.52 0 0 1 1.524-1.524z"/></symbol><symbol id="icon-chevron-right" viewBox="0 0 32 32"><path stroke-linecap="round" stroke-linejoin="round" stroke-width="2.4" d="M12 6.667 21.333 16 12 25.333"/></symbol><symbol id="icon-arrow-right" viewBox="0 0 32 32"><path fill="none" stroke="#fff" stroke-linecap="round" stroke-linejoin="round" stroke-width="2" d="M28 16H4m24 0-8-8m8 8-8 8" style="stroke:var(--color4, #fff)"/></symbol><symbol id="icon-shopping-cart" viewBox="0 0 32 32"><path d="M28.841 21.934H10.232l.934-1.903 15.525-.028c.525 0 .975-.375 1.069-.894l2.15-12.034a1.088 1.088 0 0 0-1.066-1.279L9.094 5.73l-.169-.794a1.11 1.11 0 0 0-1.081-.875H3.016a1.102 1.102 0 1 0 0 2.206H6.95l.737 3.506 1.816 8.791-2.338 3.816a1.099 1.099 0 0 0-.094 1.15 1.1 1.1 0 0 0 .984.606h1.963a3.209 3.209 0 0 0 2.562 5.134 3.21 3.21 0 0 0 3.206-3.206c0-.697-.231-1.375-.644-1.928h5.034a3.209 3.209 0 0 0 2.562 5.134 3.21 3.21 0 0 0 3.206-3.206c0-.697-.231-1.375-.644-1.928h3.541c.606 0 1.103-.494 1.103-1.103a1.109 1.109 0 0 0-1.106-1.1zM9.553 7.906l17.994.059-1.762 9.869-14.134.025-2.097-9.953zm3.028 19.147c-.544 0-.988-.444-.988-.988s.444-.987.988-.987a.99.99 0 0 1 .698 1.685.987.987 0 0 1-.698.289zm10.16 0c-.544 0-.987-.444-.987-.988s.444-.987.987-.987a.987.987 0 1 1 .001 1.974z"/></symbol><symbol id="icon-heart" viewBox="0 0 32 32"><path stroke-linecap="round" stroke-linejoin="round" stroke-width="2.286" d="M9.333 4c-3.681 0-6.667 2.955-6.667 6.6 0 2.943 1.167 9.927 12.651 16.987a1.316 1.316 0 0 0 1.366 0c11.484-7.06 12.651-14.044 12.651-16.987 0-3.645-2.985-6.6-6.667-6.6S16 8 16 8s-2.985-4-6.667-4z"/></symbol><symbol id="icon-account" viewBox="0 0 32 32"><path d="M26.667 16V9.333h2.667v8h-2.667zm0 6.667h2.667V20h-2.667zm-13.334-5.334c3.56 0 10.667 1.787 10.667 5.333v4H2.667v-4c0-3.547 7.107-5.333 10.667-5.333zm0-12a5.332 5.332 0 1 1 0 10.665 5.332 5.332 0 0 1 0-10.665zm0 14.534c-3.96 0-8.133 1.947-8.133 2.8v1.467h16.267v-1.467c0-.853-4.173-2.8-8.133-2.8zm0-12a2.801 2.801 0 0 0-1.98 4.78 2.8 2.8 0 1 0 1.98-4.78z"/></symbol></defs></svg>